{
	"asset":{
		"generator":"Khronos glTF Blender I/O v4.1.62",
		"version":"2.0"
	},
	"scene":0,
	"scenes":[
		{
			"name":"Scene",
			"nodes":[
				5
			]
		}
	],
	"nodes":[
		{
			"mesh":0,
			"name":"Cylinder.007",
			"rotation":[
				-0.0439702570438385,
				0.6897537708282471,
				0.026065733283758163,
				0.7222375273704529
			],
			"scale":[
				1.2346185445785522,
				1.159635066986084,
				1.7371904850006104
			],
			"translation":[
				1.9590215682983398,
				-0.4286453127861023,
				-0.26968324184417725
			]
		},
		{
			"children":[
				0
			],
			"mesh":1,
			"name":"Cube",
			"rotation":[
				0.07315118610858917,
				0.036902930587530136,
				-0.047269050031900406,
				0.9955163598060608
			],
			"scale":[
				1.082003116607666,
				2.318372964859009,
				0.49868613481521606
			],
			"translation":[
				1.0880720615386963,
				-0.3975810706615448,
				0.007408829405903816
			]
		},
		{
			"mesh":2,
			"name":"Cube.002",
			"rotation":[
				0.058782923966646194,
				0,
				0,
				0.9982708096504211
			],
			"scale":[
				1.8230887651443481,
				1.4268702268600464,
				0.36109206080436707
			],
			"translation":[
				0,
				1.147157907485962,
				0.9159428477287292
			]
		},
		{
			"mesh":3,
			"name":"Cube.003",
			"rotation":[
				0,
				0,
				-0.8248406052589417,
				0.5653653144836426
			],
			"scale":[
				2.5255303382873535,
				1.0591282844543457,
				0.3524318039417267
			],
			"translation":[
				0.2960250675678253,
				1.0900919437408447,
				0.8787636756896973
			]
		},
		{
			"mesh":4,
			"name":"Cylinder",
			"rotation":[
				0.70710688829422,
				0,
				0,
				0.7071066498756409
			],
			"scale":[
				0.44712841510772705,
				0.33888500928878784,
				0.6387549042701721
			],
			"translation":[
				0.5752468109130859,
				-0.07907329499721527,
				0.4444366991519928
			]
		},
		{
			"children":[
				1,
				2,
				3,
				4
			],
			"mesh":5,
			"name":"Cube.001",
			"scale":[
				1,
				0.699999988079071,
				3.200000047683716
			]
		}
	],
	"materials":[
		{
			"doubleSided":true,
			"name":"Material.002",
			"pbrMetallicRoughness":{
				"baseColorFactor":[
					0.800000011920929,
					0.800000011920929,
					0.800000011920929,
					1
				],
				"metallicFactor":0,
				"roughnessFactor":0.5
			}
		},
		{
			"doubleSided":true,
			"name":"Material",
			"pbrMetallicRoughness":{
				"baseColorFactor":[
					0.00019357068231329322,
					0.17860978841781616,
					0.8000000715255737,
					1
				],
				"metallicFactor":0,
				"roughnessFactor":0.5
			}
		},
		{
			"doubleSided":true,
			"name":"Material.003",
			"pbrMetallicRoughness":{
				"baseColorFactor":[
					0.8002041578292847,
					0.3201335370540619,
					0,
					1
				],
				"metallicFactor":0,
				"roughnessFactor":0.5
			}
		}
	],
	"meshes":[
		{
			"name":"Cylinder.007",
			"primitives":[
				{
					"attributes":{
						"POSITION":0,
						"NORMAL":1
					},
					"indices":2,
					"material":0
				}
			]
		},
		{
			"name":"Cube",
			"primitives":[
				{
					"attributes":{
						"POSITION":3,
						"NORMAL":4
					},
					"indices":5,
					"material":1
				}
			]
		},
		{
			"name":"Cube.002",
			"primitives":[
				{
					"attributes":{
						"POSITION":6,
						"NORMAL":7
					},
					"indices":8,
					"material":1
				}
			]
		},
		{
			"name":"Cube.003",
			"primitives":[
				{
					"attributes":{
						"POSITION":9,
						"NORMAL":10
					},
					"indices":11,
					"material":1
				}
			]
		},
		{
			"name":"Cylinder",
			"primitives":[
				{
					"attributes":{
						"POSITION":12,
						"NORMAL":13
					},
					"indices":14,
					"material":0
				}
			]
		},
		{
			"name":"Cube.001",
			"primitives":[
				{
					"attributes":{
						"POSITION":15,
						"NORMAL":16
					},
					"indices":17,
					"material":1
				},
				{
					"attributes":{
						"POSITION":18,
						"NORMAL":19
					},
					"indices":20,
					"material":0
				},
				{
					"attributes":{
						"POSITION":21,
						"NORMAL":22
					},
					"indices":23,
					"material":2
				}
			]
		}
	],
	"accessors":[
		{
			"bufferView":0,
			"componentType":5126,
			"count":116,
			"max":[
				1.7900930643081665,
				0.21554800868034363,
				0.21554790437221527
			],
			"min":[
				-1.7900925874710083,
				-0.21554788947105408,
				-3.5259711742401123
			],
			"type":"VEC3"
		},
		{
			"bufferView":1,
			"componentType":5126,
			"count":116,
			"type":"VEC3"
		},
		{
			"bufferView":2,
			"componentType":5123,
			"count":672,
			"type":"SCALAR"
		},
		{
			"bufferView":3,
			"componentType":5126,
			"count":108,
			"max":[
				4.520525932312012,
				0.3988913595676422,
				1.3816063404083252
			],
			"min":[
				-6.679404258728027,
				-0.5964093804359436,
				-2.6369569301605225
			],
			"type":"VEC3"
		},
		{
			"bufferView":4,
			"componentType":5126,
			"count":108,
			"type":"VEC3"
		},
		{
			"bufferView":5,
			"componentType":5123,
			"count":336,
			"type":"SCALAR"
		},
		{
			"bufferView":6,
			"componentType":5126,
			"count":8,
			"max":[
				0.040000010281801224,
				2,
				1.4167895317077637
			],
			"min":[
				-0.040000010281801224,
				0,
				-1
			],
			"type":"VEC3"
		},
		{
			"bufferView":7,
			"componentType":5126,
			"count":8,
			"type":"VEC3"
		},
		{
			"bufferView":8,
			"componentType":5123,
			"count":30,
			"type":"SCALAR"
		},
		{
			"bufferView":9,
			"componentType":5126,
			"count":16,
			"max":[
				0.8338181376457214,
				2,
				1.4167895317077637
			],
			"min":[
				-0.040000010281801224,
				-2.1153311729431152,
				-1
			],
			"type":"VEC3"
		},
		{
			"bufferView":10,
			"componentType":5126,
			"count":16,
			"type":"VEC3"
		},
		{
			"bufferView":11,
			"componentType":5123,
			"count":60,
			"type":"SCALAR"
		},
		{
			"bufferView":12,
			"componentType":5126,
			"count":48,
			"max":[
				1.09308922290802,
				2,
				1.262190818786621
			],
			"min":[
				-3.666161060333252,
				0,
				-1.262190580368042
			],
			"type":"VEC3"
		},
		{
			"bufferView":13,
			"componentType":5126,
			"count":48,
			"type":"VEC3"
		},
		{
			"bufferView":14,
			"componentType":5123,
			"count":120,
			"type":"SCALAR"
		},
		{
			"bufferView":15,
			"componentType":5126,
			"count":132,
			"max":[
				1.5390598773956299,
				1.5525798797607422,
				1.3716864585876465
			],
			"min":[
				-1.5390598773956299,
				-1.2470108270645142,
				-3.194114923477173
			],
			"type":"VEC3"
		},
		{
			"bufferView":16,
			"componentType":5126,
			"count":132,
			"type":"VEC3"
		},
		{
			"bufferView":17,
			"componentType":5123,
			"count":678,
			"type":"SCALAR"
		},
		{
			"bufferView":18,
			"componentType":5126,
			"count":78,
			"max":[
				1.5390598773956299,
				1.5525798797607422,
				-1.219895362854004
			],
			"min":[
				-1.5390598773956299,
				-1.0170228481292725,
				-2.7076950073242188
			],
			"type":"VEC3"
		},
		{
			"bufferView":19,
			"componentType":5126,
			"count":78,
			"type":"VEC3"
		},
		{
			"bufferView":20,
			"componentType":5123,
			"count":270,
			"type":"SCALAR"
		},
		{
			"bufferView":21,
			"componentType":5126,
			"count":12,
			"max":[
				0.3903382420539856,
				1.5499444007873535,
				-1.5981305837631226
			],
			"min":[
				-0.3903382420539856,
				0.5619937181472778,
				-2.639329195022583
			],
			"type":"VEC3"
		},
		{
			"bufferView":22,
			"componentType":5126,
			"count":12,
			"type":"VEC3"
		},
		{
			"bufferView":23,
			"componentType":5123,
			"count":48,
			"type":"SCALAR"
		}
	],
	"bufferViews":[
		{
			"buffer":0,
			"byteLength":1392,
			"byteOffset":0,
			"target":34962
		},
		{
			"buffer":0,
			"byteLength":1392,
			"byteOffset":1392,
			"target":34962
		},
		{
			"buffer":0,
			"byteLength":1344,
			"byteOffset":2784,
			"target":34963
		},
		{
			"buffer":0,
			"byteLength":1296,
			"byteOffset":4128,
			"target":34962
		},
		{
			"buffer":0,
			"byteLength":1296,
			"byteOffset":5424,
			"target":34962
		},
		{
			"buffer":0,
			"byteLength":672,
			"byteOffset":6720,
			"target":34963
		},
		{
			"buffer":0,
			"byteLength":96,
			"byteOffset":7392,
			"target":34962
		},
		{
			"buffer":0,
			"byteLength":96,
			"byteOffset":7488,
			"target":34962
		},
		{
			"buffer":0,
			"byteLength":60,
			"byteOffset":7584,
			"target":34963
		},
		{
			"buffer":0,
			"byteLength":192,
			"byteOffset":7644,
			"target":34962
		},
		{
			"buffer":0,
			"byteLength":192,
			"byteOffset":7836,
			"target":34962
		},
		{
			"buffer":0,
			"byteLength":120,
			"byteOffset":8028,
			"target":34963
		},
		{
			"buffer":0,
			"byteLength":576,
			"byteOffset":8148,
			"target":34962
		},
		{
			"buffer":0,
			"byteLength":576,
			"byteOffset":8724,
			"target":34962
		},
		{
			"buffer":0,
			"byteLength":240,
			"byteOffset":9300,
			"target":34963
		},
		{
			"buffer":0,
			"byteLength":1584,
			"byteOffset":9540,
			"target":34962
		},
		{
			"buffer":0,
			"byteLength":1584,
			"byteOffset":11124,
			"target":34962
		},
		{
			"buffer":0,
			"byteLength":1356,
			"byteOffset":12708,
			"target":34963
		},
		{
			"buffer":0,
			"byteLength":936,
			"byteOffset":14064,
			"target":34962
		},
		{
			"buffer":0,
			"byteLength":936,
			"byteOffset":15000,
			"target":34962
		},
		{
			"buffer":0,
			"byteLength":540,
			"byteOffset":15936,
			"target":34963
		},
		{
			"buffer":0,
			"byteLength":144,
			"byteOffset":16476,
			"target":34962
		},
		{
			"buffer":0,
			"byteLength":144,
			"byteOffset":16620,
			"target":34962
		},
		{
			"buffer":0,
			"byteLength":96,
			"byteOffset":16764,
			"target":34963
		}
	],
	"buffers":[
		{
			"byteLength":16860,
			"uri":"player.bin"
		}
	]
}
